<svg id="visual" viewBox="0 0 1900 800" width="1900" height="800" xmlns="http://www.w3.org/2000/svg" xmlns:xlink="http://www.w3.org/1999/xlink" version="1.1"><path d="M0 201L28.8 187.7C57.7 174.3 115.3 147.7 172.8 149C230.3 150.3 287.7 179.7 345.2 185C402.7 190.3 460.3 171.7 518 187.7C575.7 203.7 633.3 254.3 691 257C748.7 259.7 806.3 214.3 863.8 181C921.3 147.7 978.7 126.3 1036.2 111.7C1093.7 97 1151.3 89 1209 115.7C1266.7 142.3 1324.3 203.7 1382 209C1439.7 214.3 1497.3 163.7 1554.8 157C1612.3 150.3 1669.7 187.7 1727.2 181C1784.7 174.3 1842.3 123.7 1871.2 98.3L1900 73L1900 0L1871.2 0C1842.3 0 1784.7 0 1727.2 0C1669.7 0 1612.3 0 1554.8 0C1497.3 0 1439.7 0 1382 0C1324.3 0 1266.7 0 1209 0C1151.3 0 1093.7 0 1036.2 0C978.7 0 921.3 0 863.8 0C806.3 0 748.7 0 691 0C633.3 0 575.7 0 518 0C460.3 0 402.7 0 345.2 0C287.7 0 230.3 0 172.8 0C115.3 0 57.7 0 28.8 0L0 0Z" fill="#6198ff"></path><path d="M0 273L28.8 257C57.7 241 115.3 209 172.8 214.3C230.3 219.7 287.7 262.3 345.2 263.7C402.7 265 460.3 225 518 231.7C575.7 238.3 633.3 291.7 691 305C748.7 318.3 806.3 291.7 863.8 258.3C921.3 225 978.7 185 1036.2 158.3C1093.7 131.7 1151.3 118.3 1209 147.7C1266.7 177 1324.3 249 1382 265C1439.7 281 1497.3 241 1554.8 237C1612.3 233 1669.7 265 1727.2 262.3C1784.7 259.7 1842.3 222.3 1871.2 203.7L1900 185L1900 71L1871.2 96.3C1842.3 121.7 1784.7 172.3 1727.2 179C1669.7 185.7 1612.3 148.3 1554.8 155C1497.3 161.7 1439.7 212.3 1382 207C1324.3 201.7 1266.7 140.3 1209 113.7C1151.3 87 1093.7 95 1036.2 109.7C978.7 124.3 921.3 145.7 863.8 179C806.3 212.3 748.7 257.7 691 255C633.3 252.3 575.7 201.7 518 185.7C460.3 169.7 402.7 188.3 345.2 183C287.7 177.7 230.3 148.3 172.8 147C115.3 145.7 57.7 172.3 28.8 185.7L0 199Z" fill="#4988ff"></path><path d="M0 329L28.8 319.7C57.7 310.3 115.3 291.7 172.8 298.3C230.3 305 287.7 337 345.2 335.7C402.7 334.3 460.3 299.7 518 309C575.7 318.3 633.3 371.7 691 379.7C748.7 387.7 806.3 350.3 863.8 310.3C921.3 270.3 978.7 227.7 1036.2 205C1093.7 182.3 1151.3 179.7 1209 215.7C1266.7 251.7 1324.3 326.3 1382 343.7C1439.7 361 1497.3 321 1554.8 319.7C1612.3 318.3 1669.7 355.7 1727.2 346.3C1784.7 337 1842.3 281 1871.2 253L1900 225L1900 183L1871.2 201.7C1842.3 220.3 1784.7 257.7 1727.2 260.3C1669.7 263 1612.3 231 1554.8 235C1497.3 239 1439.7 279 1382 263C1324.3 247 1266.7 175 1209 145.7C1151.3 116.3 1093.7 129.7 1036.2 156.3C978.7 183 921.3 223 863.8 256.3C806.3 289.7 748.7 316.3 691 303C633.3 289.7 575.7 236.3 518 229.7C460.3 223 402.7 263 345.2 261.7C287.7 260.3 230.3 217.7 172.8 212.3C115.3 207 57.7 239 28.8 255L0 271Z" fill="#2d77ff"></path><path d="M0 393L28.8 391.7C57.7 390.3 115.3 387.7 172.8 402.3C230.3 417 287.7 449 345.2 455.7C402.7 462.3 460.3 443.7 518 442.3C575.7 441 633.3 457 691 458.3C748.7 459.7 806.3 446.3 863.8 425C921.3 403.7 978.7 374.3 1036.2 365C1093.7 355.7 1151.3 366.3 1209 385C1266.7 403.7 1324.3 430.3 1382 435.7C1439.7 441 1497.3 425 1554.8 441C1612.3 457 1669.7 505 1727.2 507.7C1784.7 510.3 1842.3 467.7 1871.2 446.3L1900 425L1900 223L1871.2 251C1842.3 279 1784.7 335 1727.2 344.3C1669.7 353.7 1612.3 316.3 1554.8 317.7C1497.3 319 1439.7 359 1382 341.7C1324.3 324.3 1266.7 249.7 1209 213.7C1151.3 177.7 1093.7 180.3 1036.2 203C978.7 225.7 921.3 268.3 863.8 308.3C806.3 348.3 748.7 385.7 691 377.7C633.3 369.7 575.7 316.3 518 307C460.3 297.7 402.7 332.3 345.2 333.7C287.7 335 230.3 303 172.8 296.3C115.3 289.7 57.7 308.3 28.8 317.7L0 327Z" fill="#0066ff"></path><path d="M0 505L28.8 494.3C57.7 483.7 115.3 462.3 172.8 481C230.3 499.7 287.7 558.3 345.2 570.3C402.7 582.3 460.3 547.7 518 534.3C575.7 521 633.3 529 691 521C748.7 513 806.3 489 863.8 481C921.3 473 978.7 481 1036.2 479.7C1093.7 478.3 1151.3 467.7 1209 475.7C1266.7 483.7 1324.3 510.3 1382 511.7C1439.7 513 1497.3 489 1554.8 513C1612.3 537 1669.7 609 1727.2 614.3C1784.7 619.7 1842.3 558.3 1871.2 527.7L1900 497L1900 423L1871.2 444.3C1842.3 465.7 1784.7 508.3 1727.2 505.7C1669.7 503 1612.3 455 1554.8 439C1497.3 423 1439.7 439 1382 433.7C1324.3 428.3 1266.7 401.7 1209 383C1151.3 364.3 1093.7 353.7 1036.2 363C978.7 372.3 921.3 401.7 863.8 423C806.3 444.3 748.7 457.7 691 456.3C633.3 455 575.7 439 518 440.3C460.3 441.7 402.7 460.3 345.2 453.7C287.7 447 230.3 415 172.8 400.3C115.3 385.7 57.7 388.3 28.8 389.7L0 391Z" fill="#005de8"></path><path d="M0 545L28.8 545C57.7 545 115.3 545 172.8 569C230.3 593 287.7 641 345.2 654.3C402.7 667.7 460.3 646.3 518 631.7C575.7 617 633.3 609 691 593C748.7 577 806.3 553 863.8 547.7C921.3 542.3 978.7 555.7 1036.2 551.7C1093.7 547.7 1151.3 526.3 1209 530.3C1266.7 534.3 1324.3 563.7 1382 569C1439.7 574.3 1497.3 555.7 1554.8 574.3C1612.3 593 1669.7 649 1727.2 649C1784.7 649 1842.3 593 1871.2 565L1900 537L1900 495L1871.2 525.7C1842.3 556.3 1784.7 617.7 1727.2 612.3C1669.7 607 1612.3 535 1554.8 511C1497.3 487 1439.7 511 1382 509.7C1324.3 508.3 1266.7 481.7 1209 473.7C1151.3 465.7 1093.7 476.3 1036.2 477.7C978.7 479 921.3 471 863.8 479C806.3 487 748.7 511 691 519C633.3 527 575.7 519 518 532.3C460.3 545.7 402.7 580.3 345.2 568.3C287.7 556.3 230.3 497.7 172.8 479C115.3 460.3 57.7 481.7 28.8 492.3L0 503Z" fill="#0055d1"></path><path d="M0 801L28.8 801C57.7 801 115.3 801 172.8 801C230.3 801 287.7 801 345.2 801C402.7 801 460.3 801 518 801C575.7 801 633.3 801 691 801C748.7 801 806.3 801 863.8 801C921.3 801 978.7 801 1036.2 801C1093.7 801 1151.3 801 1209 801C1266.7 801 1324.3 801 1382 801C1439.7 801 1497.3 801 1554.8 801C1612.3 801 1669.7 801 1727.2 801C1784.7 801 1842.3 801 1871.2 801L1900 801L1900 535L1871.2 563C1842.3 591 1784.7 647 1727.2 647C1669.7 647 1612.3 591 1554.8 572.3C1497.3 553.7 1439.7 572.3 1382 567C1324.3 561.7 1266.7 532.3 1209 528.3C1151.3 524.3 1093.7 545.7 1036.2 549.7C978.7 553.7 921.3 540.3 863.8 545.7C806.3 551 748.7 575 691 591C633.3 607 575.7 615 518 629.7C460.3 644.3 402.7 665.7 345.2 652.3C287.7 639 230.3 591 172.8 567C115.3 543 57.7 543 28.8 543L0 543Z" fill="#004cbb"></path></svg>